<svg width="71" height="70" viewBox="0 0 71 70" fill="none" xmlns="http://www.w3.org/2000/svg">
<path fill-rule="evenodd" clip-rule="evenodd" d="M31.4954 63.8219C47.3622 63.8219 60.2247 50.1419 60.2247 33.2668C60.2247 16.3916 47.3622 2.71159 31.4954 2.71159C15.6287 2.71159 2.76611 16.3916 2.76611 33.2668C2.76611 50.1419 15.6287 63.8219 31.4954 63.8219ZM31.4954 64.6367C47.7853 64.6367 60.9908 50.5919 60.9908 33.2668C60.9908 15.9416 47.7853 1.89679 31.4954 1.89679C15.2056 1.89679 2 15.9416 2 33.2668C2 50.5919 15.2056 64.6367 31.4954 64.6367Z" stroke="white" stroke-width="3"/>
<path d="M2.00016 68.6202L24.1656 34.3882H44.316L69.0002 1.89679" stroke="#D100FF" stroke-width="4"/>
</svg>
